<svg xmlns="http://www.w3.org/2000/svg" width="36" height="48"><g fill="none"><path fill="#D4D4D4" d="M36 9v38a1 1 0 0 1-1 1H1a1 1 0 0 1-1-1V1a1 1 0 0 1 1-1h26"/><path fill="#FEFEFE" d="M1 1h26l8 8v38H1z"/><path fill="#45688F" fill-rule="nonzero" d="M12.3 30.35a1.02 1.02 0 0 1-1.42.07A1 1 0 0 1 10.8 29l6.5-7.17a5.58 5.58 0 0 1 7.86-.4 5.55 5.55 0 0 1 .4 7.86l-8.48 9.37a4.07 4.07 0 0 1-5.74.3 4.02 4.02 0 0 1-.3-5.7l7.83-8.65a2.52 2.52 0 0 1 3.54-.2c1.04.93 1.13 2.5.2 3.54l-7.1 7.92a1.02 1.02 0 0 1-1.44.08 1 1 0 0 1-.08-1.42l7.1-7.92a.48.48 0 0 0-.7-.65l-7.83 8.64a2 2 0 0 0 .15 2.86c.83.75 2.12.68 2.87-.15l8.48-9.36a3.54 3.54 0 0 0-.25-5v-.02a3.55 3.55 0 0 0-5 .26l-6.5 7.17z"/><path fill="#D4D4D4" fill-rule="nonzero" d="M27 1v8h8l-8-8zm.7-.7l8 8c.64.62.2 1.7-.7 1.7h-8a1 1 0 0 1-1-1V1c0-.9 1.08-1.34 1.7-.7z"/></g></svg>