<svg xmlns="http://www.w3.org/2000/svg" width="36" height="48"><g fill="none"><path fill="#D4D4D4" d="M36 9v38a1 1 0 0 1-1 1H1a1 1 0 0 1-1-1V1a1 1 0 0 1 1-1h26"/><path fill="#FEFEFE" d="M1 1h26l8 8v38H1z"/><path fill="#2192EF" fill-rule="nonzero" d="M26.2 33.4a1 1 0 0 1 1.6 1.17l-3.6 5a1 1 0 0 1-1.42.2l-2.4-1.87a1 1 0 1 1 1.24-1.57l1.58 1.23 3-4.15zM18 30c-2.76 0-5-2.24-5-5a5 5 0 0 1 5-5c2.76 0 5 2.24 5 5a5 5 0 0 1-5 5zm0-2a3 3 0 1 0-3-3 3 3 0 0 0 3 3zm0 10a1 1 0 0 1 1 .98 1 1 0 0 1-1 1L13 40a2 2 0 0 1-2-2v-2a7 7 0 0 1 7-7 6.97 6.97 0 0 1 5.27 2.38 1 1 0 1 1-1.5 1.3A4.97 4.97 0 0 0 18 31a5.02 5.02 0 0 0-5 5.03v2h5z"/><path fill="#D4D4D4" fill-rule="nonzero" d="M27 1v8h8l-8-8zm.7-.7l8 8c.64.62.2 1.7-.7 1.7h-8a1 1 0 0 1-1-1V1c0-.9 1.08-1.34 1.7-.7z"/></g></svg>