<svg xmlns="http://www.w3.org/2000/svg" width="36" height="48"><g fill="none"><path fill="#D4D4D4" d="M36 9v38a1 1 0 0 1-1 1H1a1 1 0 0 1-1-1V1a1 1 0 0 1 1-1h26"/><path fill="#FEFEFE" d="M1 1h26l8 8v38H1z"/><path fill="#D4D4D4" d="M5.5 15h11a.5.5 0 1 1 0 1h-11a.5.5 0 1 1 0-1zm0 6h25a.5.5 0 1 1 0 1h-25a.5.5 0 1 1 0-1zm0-2h25a.5.5 0 1 1 0 1h-25a.5.5 0 1 1 0-1zm0 4h25a.5.5 0 1 1 0 1h-25a.5.5 0 1 1 0-1zm0 9h25a.5.5 0 1 1 0 1h-25a.5.5 0 1 1 0-1zm0 2h25a.5.5 0 1 1 0 1h-25a.5.5 0 1 1 0-1zm0 2h10a.5.5 0 1 1 0 1h-10a.5.5 0 1 1 0-1zm0 2h10a.5.5 0 1 1 0 1h-10a.5.5 0 1 1 0-1zM6 26h10a1 1 0 0 1 1 1v2a1 1 0 0 1-1 1H6a1 1 0 0 1-1-1v-2a1 1 0 0 1 1-1zm0 1v2h10v-2H6zm14-1h10a1 1 0 0 1 1 1v2a1 1 0 0 1-1 1H20a1 1 0 0 1-1-1v-2a1 1 0 0 1 1-1zm0 1v2h10v-2H20zm0 9h10a1 1 0 0 1 1 1v1a1 1 0 0 1-1 1H20a1 1 0 0 1-1-1v-1a1 1 0 0 1 1-1zm0 1v1h10v-1H20z"/><path fill="#D4D4D4" fill-rule="nonzero" d="M27 1v8h8l-8-8zm.7-.7l8 8c.64.62.2 1.7-.7 1.7h-8a1 1 0 0 1-1-1V1c0-.9 1.08-1.34 1.7-.7z"/></g></svg>