<svg xmlns="http://www.w3.org/2000/svg" width="16" height="16"><path fill="#414141" d="M5 2c0-.55.44-1 1-1 .55 0 1 .44 1 1 0 .55-.44 1-1 1-.55 0-1-.44-1-1zm4 0c0-.55.44-1 1-1 .55 0 1 .44 1 1 0 .55-.44 1-1 1-.55 0-1-.44-1-1zM5 6c0-.55.44-1 1-1 .55 0 1 .44 1 1 0 .55-.44 1-1 1-.55 0-1-.44-1-1zm4 0c0-.55.44-1 1-1 .55 0 1 .44 1 1 0 .55-.44 1-1 1-.55 0-1-.44-1-1zm-4 4c0-.55.44-1 1-1 .55 0 1 .44 1 1 0 .55-.44 1-1 1-.55 0-1-.44-1-1zm4 0c0-.55.44-1 1-1 .55 0 1 .44 1 1 0 .55-.44 1-1 1-.55 0-1-.44-1-1zm-4 4c0-.55.44-1 1-1 .55 0 1 .44 1 1 0 .55-.44 1-1 1-.55 0-1-.44-1-1zm4 0c0-.55.44-1 1-1 .55 0 1 .44 1 1 0 .55-.44 1-1 1-.55 0-1-.44-1-1z"/></svg>