<svg xmlns="http://www.w3.org/2000/svg" width="36" height="48"><defs><clipPath id="cp1"><path d="M21 32c-.13 0-.26.03-.38.08s-.23.12-.32.22c-.1.1-.17.2-.22.32-.05.12-.08.25-.08.38v15h15c.13 0 .26-.03.38-.08s.23-.12.32-.22c.1-.1.17-.2.22-.32.05-.12.08-.25.08-.38V32H21z"/></clipPath></defs><style>tspan { white-space:pre } .shp0 { fill: #d4d4d4 } .shp1 { fill: #fefefe } .shp2 { fill: #dddddd } .shp3 { fill: #3bb273 } .shp4 { fill: #ffffff }</style><g id="Layer"><path id="Layer" d="M27 0H1C.87 0 .74.03.62.08S.4.2.3.3C.2.4.13.5.08.62.03.74 0 .87 0 1v46c0 .13.03.26.08.38s.12.23.22.32c.1.1.2.17.32.22.12.05.25.08.38.08h34c.13 0 .26-.03.38-.08s.23-.12.32-.22c.1-.1.17-.2.22-.32.05-.12.08-.25.08-.38V9" class="shp0"/><path id="Layer" d="M1 47h34V9l-8-8H1z" class="shp1"/><path id="Layer" d="M5.5 15h11c.13 0 .26.05.35.15.1.1.15.22.15.35 0 .13-.05.26-.15.35-.1.1-.22.15-.35.15h-11c-.13 0-.26-.05-.35-.15-.1-.1-.15-.22-.15-.35 0-.13.05-.26.15-.35.1-.1.22-.15.35-.15zm0 6h25c.13 0 .26.05.35.15.1.1.15.22.15.35 0 .13-.05.26-.15.35-.1.1-.22.15-.35.15h-25c-.13 0-.26-.05-.35-.15-.1-.1-.15-.22-.15-.35 0-.13.05-.26.15-.35.1-.1.22-.15.35-.15zm0-2h25c.13 0 .26.05.35.15.1.1.15.22.15.35 0 .13-.05.26-.15.35-.1.1-.22.15-.35.15h-25c-.13 0-.26-.05-.35-.15-.1-.1-.15-.22-.15-.35 0-.13.05-.26.15-.35.1-.1.22-.15.35-.15zm0 4h25c.13 0 .26.05.35.15.1.1.15.22.15.35 0 .13-.05.26-.15.35-.1.1-.22.15-.35.15h-25c-.13 0-.26-.05-.35-.15-.1-.1-.15-.22-.15-.35 0-.13.05-.26.15-.35.1-.1.22-.15.35-.15zm0 9h25c.13 0 .26.05.35.15.1.1.15.22.15.35 0 .13-.05.26-.15.35-.1.1-.22.15-.35.15h-25c-.13 0-.26-.05-.35-.15-.1-.1-.15-.22-.15-.35 0-.13.05-.26.15-.35.1-.1.22-.15.35-.15zm0 2h25c.13 0 .26.05.35.15.1.1.15.22.15.35 0 .13-.05.26-.15.35-.1.1-.22.15-.35.15h-25c-.13 0-.26-.05-.35-.15-.1-.1-.15-.22-.15-.35 0-.13.05-.26.15-.35.1-.1.22-.15.35-.15zm0 2h10c.13 0 .26.05.35.15.1.1.15.22.15.35 0 .13-.05.26-.15.35-.1.1-.22.15-.35.15h-10c-.13 0-.26-.05-.35-.15-.1-.1-.15-.22-.15-.35 0-.13.05-.26.15-.35.1-.1.22-.15.35-.15zm0 2h10c.13 0 .26.05.35.15.1.1.15.22.15.35 0 .13-.05.26-.15.35-.1.1-.22.15-.35.15h-10c-.13 0-.26-.05-.35-.15-.1-.1-.15-.22-.15-.35 0-.13.05-.26.15-.35.1-.1.22-.15.35-.15zM6 26h10c.13 0 .26.03.38.08s.23.12.32.22c.1.1.17.2.22.32.05.12.08.25.08.38v2c0 .13-.03.26-.08.38s-.12.23-.22.32c-.1.1-.2.17-.32.22-.12.05-.25.08-.38.08H6c-.13 0-.26-.03-.38-.08s-.23-.12-.32-.22c-.1-.1-.17-.2-.22-.32-.05-.12-.08-.25-.08-.38v-2c0-.13.03-.26.08-.38s.12-.23.22-.32c.1-.1.2-.17.32-.22.12-.05.25-.08.38-.08zm0 1v2h10v-2zm14-1h10c.13 0 .26.03.38.08s.23.12.32.22c.1.1.17.2.22.32.05.12.08.25.08.38v2c0 .13-.03.26-.08.38s-.12.23-.22.32c-.1.1-.2.17-.32.22-.12.05-.25.08-.38.08H20c-.13 0-.26-.03-.38-.08s-.23-.12-.32-.22c-.1-.1-.17-.2-.22-.32-.05-.12-.08-.25-.08-.38v-2c0-.13.03-.26.08-.38s.12-.23.22-.32c.1-.1.2-.17.32-.22.12-.05.25-.08.38-.08zm0 1v2h10v-2zm0 9h10c.13 0 .26.03.38.08s.23.12.32.22c.1.1.17.2.22.32.05.12.08.25.08.38v1c0 .13-.03.26-.08.38s-.12.23-.22.32c-.1.1-.2.17-.32.22-.12.05-.25.08-.38.08H20c-.13 0-.26-.03-.38-.08s-.23-.12-.32-.22c-.1-.1-.17-.2-.22-.32-.05-.12-.08-.25-.08-.38v-1c0-.13.03-.26.08-.38s.12-.23.22-.32c.1-.1.2-.17.32-.22.12-.05.25-.08.38-.08zm0 1v1h10v-1zM27.7.3l8 8c.64.62.2 1.7-.7 1.7h-8c-.13 0-.26-.03-.38-.08s-.23-.12-.32-.22c-.1-.1-.17-.2-.22-.32-.05-.12-.08-.25-.08-.38V1c0-.9 1.08-1.34 1.7-.7zM27 1v8h8z" class="shp0"/></g><g id="Layer copy"><g id="Layer copy"><path id="a copy" d="M21 32c-.13 0-.26.03-.38.08s-.23.12-.32.22c-.1.1-.17.2-.22.32-.05.12-.08.25-.08.38v15h15c.13 0 .26-.03.38-.08s.23-.12.32-.22c.1-.1.17-.2.22-.32.05-.12.08-.25.08-.38V32H21z" class="shp2"/><g id="Clip-Path copy" clip-path="url(#cp1)"><g id="Layer copy"><path id="Layer copy" d="M20 48h16V32H20z" class="shp3"/></g></g></g><path id="Layer copy" d="M29 41c.27 0 .52-.1.7-.3.2-.18.3-.43.3-.7 0-.27-.1-.52-.3-.7-.18-.2-.43-.3-.7-.3h-2v-1h3c.27 0 .52-.1.7-.3.2-.18.3-.43.3-.7 0-.27-.1-.52-.3-.7-.18-.2-.43-.3-.7-.3h-4c-.13 0-.26.03-.38.08s-.23.12-.32.22c-.1.1-.17.2-.22.32-.05.12-.08.25-.08.38v6c0 .27.1.52.3.7.18.2.43.3.7.3.27 0 .52-.1.7-.3.2-.18.3-.43.3-.7v-2z" class="shp4"/></g></svg>