<svg xmlns="http://www.w3.org/2000/svg" width="36" height="48"><g fill="none"><path fill="#D4D4D4" d="M36 9v38a1 1 0 0 1-1 1H1a1 1 0 0 1-1-1V1a1 1 0 0 1 1-1h26"/><path fill="#FEFEFE" d="M1 1h26l8 8v38H1z"/><path fill="#3BB273" fill-rule="nonzero" d="M17 28.92V23.1c-1.78.32-3 1.4-3 2.9 0 1.58 1.12 2.63 3 2.92zm2-5.87v6.02c2.95.36 5 2.13 5 4.93 0 2.73-2.16 4.54-5 4.92V40a1 1 0 0 1-2 0v-1.03c-1.57-.14-2.83-.67-3.73-1.6a1 1 0 0 1 1.46-1.4c.5.54 1.25.87 2.27 1v-6.04c-2.95-.35-5-2.13-5-4.93 0-2.73 2.17-4.55 5-4.93V20a1 1 0 0 1 2 0v1.04c1.57.14 2.83.7 3.73 1.66a1 1 0 1 1-1.46 1.36c-.5-.55-1.26-.9-2.27-1zm0 8.03v5.82c1.8-.32 3-1.4 3-2.9 0-1.57-1.12-2.62-3-2.92z"/><path fill="#D4D4D4" fill-rule="nonzero" d="M27 1v8h8l-8-8zm.7-.7l8 8c.64.62.2 1.7-.7 1.7h-8a1 1 0 0 1-1-1V1c0-.9 1.08-1.34 1.7-.7z"/></g></svg>